<?xml version="1.0" encoding="UTF-8" standalone="no"?>
<!-- Created with Inkscape (http://www.inkscape.org/) -->

<svg
   width="150.91814mm"
   height="150.918mm"
   viewBox="0 0 150.91814 150.91799"
   version="1.1"
   id="svg1"
   xml:space="preserve"
   inkscape:version="1.3 (0e150ed6c4, 2023-07-21)"
   sodipodi:docname="system-sizer.svg"
   inkscape:export-filename="system-sizer-128.png"
   inkscape:export-xdpi="19.687778"
   inkscape:export-ydpi="19.687778"
   xmlns:inkscape="http://www.inkscape.org/namespaces/inkscape"
   xmlns:sodipodi="http://sodipodi.sourceforge.net/DTD/sodipodi-0.dtd"
   xmlns:xlink="http://www.w3.org/1999/xlink"
   xmlns="http://www.w3.org/2000/svg"
   xmlns:svg="http://www.w3.org/2000/svg"><sodipodi:namedview
     id="namedview1"
     pagecolor="#505050"
     bordercolor="#ffffff"
     borderopacity="1"
     inkscape:showpageshadow="0"
     inkscape:pageopacity="0"
     inkscape:pagecheckerboard="1"
     inkscape:deskcolor="#505050"
     inkscape:document-units="mm"
     inkscape:zoom="0.70737049"
     inkscape:cx="327.26839"
     inkscape:cy="397.95271"
     inkscape:window-width="1920"
     inkscape:window-height="1007"
     inkscape:window-x="0"
     inkscape:window-y="44"
     inkscape:window-maximized="1"
     inkscape:current-layer="layer1" /><defs
     id="defs1"><linearGradient
       id="linearGradient9"
       inkscape:collect="always"><stop
         style="stop-color:#7268db;stop-opacity:0.36218184;"
         offset="0"
         id="stop9" /><stop
         style="stop-color:#34ae2a;stop-opacity:0.86798877;"
         offset="1"
         id="stop10" /></linearGradient><linearGradient
       inkscape:collect="always"
       xlink:href="#linearGradient9"
       id="linearGradient10"
       x1="137.29797"
       y1="218.09514"
       x2="137.09859"
       y2="143.22714"
       gradientUnits="userSpaceOnUse"
       gradientTransform="matrix(0.83730091,0,0,1.103668,8.8940482,-56.322226)" /></defs><g
     inkscape:groupmode="layer"
     id="layer3"
     inkscape:label="valvebody"
     style="display:inline"
     transform="translate(-33.032165,-48.137452)"><path
       style="fill:#131313;fill-opacity:0.997044;stroke:#000000;stroke-width:1.80158;stroke-linecap:round;stroke-linejoin:round;stroke-dasharray:none"
       d="m 82.699194,129.46892 0.03196,13.21568 -12.48748,0.11596 0.860718,25.4187 -4.651015,4.05577 c 0.588797,2.45714 0.727824,5.29882 4.810285,4.76903 l 6.479387,1.49994 c -0.753074,4.37557 -1.398024,8.75657 1.599196,13.3198 12.006873,1.54705 21.522925,4.77169 43.905445,-0.6694 1.41106,-7.30407 -0.10633,-8.21685 -0.40711,-11.78477 l 8.38208,-2.13273 c 3.19592,-0.0461 4.32189,-1.89449 3.79061,-5.18583 l -8.9082,-6.193 8.61044,-0.96511 -0.18257,-5.20976 2.07342,1.58353 11.403,0.16588 3.09997,-3.88819 0.13183,-13.4782 -5.58996,-4.18369 -2.68273,-1.81789 0.20093,-11.49905 -30.12175,-32.018174 z"
       id="path1"
       sodipodi:nodetypes="cccccccccccccccccccccccc" /></g><g
     inkscape:groupmode="layer"
     id="layer4"
     inkscape:label="powerhead"
     style="display:inline"
     transform="translate(-33.032165,-48.137452)"><path
       style="fill:#181818;fill-opacity:1;stroke:#000000;stroke-width:1.80158;stroke-linecap:round;stroke-linejoin:round;stroke-dasharray:none"
       d="m 35.128023,68.823133 c 2.087594,-1.682238 3.02419,-3.923325 8.109446,-4.150097 l 116.742321,0.588838 c 3.78313,1.051872 5.73408,2.836023 5.37686,5.542656 2.74835,17.019274 2.04552,33.80487 0.64994,50.54359 -0.29689,4.70146 -2.9268,5.51671 -5.84673,5.84883 l -119.55682,0.2078 c -3.940397,-1.00266 -4.284509,-3.51913 -5.033337,-5.86525 -1.619281,-17.57213 -2.484449,-35.144247 -0.44168,-52.716367 z"
       id="path2"
       sodipodi:nodetypes="ccccccccc" /><path
       style="fill:#397dd0;fill-opacity:1;stroke:#4d4d4d;stroke-width:0.976421;stroke-linecap:round;stroke-linejoin:round;stroke-dasharray:none;stroke-opacity:1"
       d="M 38.98259,78.539223 H 162.46451"
       id="path6" /><path
       style="fill:#397dd0;fill-opacity:1;stroke:#4d4d4d;stroke-width:0.976421;stroke-linecap:round;stroke-linejoin:round;stroke-dasharray:none;stroke-opacity:1"
       d="M 39.365497,96.556656 H 162.84742"
       id="path7" /><path
       style="fill:#397dd0;fill-opacity:1;stroke:#4d4d4d;stroke-width:0.976421;stroke-linecap:round;stroke-linejoin:round;stroke-dasharray:none;stroke-opacity:1"
       d="M 39.009866,115.18402 H 162.49179"
       id="path8" /></g><g
     inkscape:groupmode="layer"
     id="layer5"
     inkscape:label="ctrl_panel"
     transform="translate(-33.032165,-48.137452)"><path
       style="display:inline;fill:#181818;fill-opacity:1;stroke:#000000;stroke-width:1.80158;stroke-linecap:round;stroke-linejoin:round;stroke-dasharray:none"
       d="m 47.081404,55.391024 c -5.700767,0.646732 -5.386082,3.708193 -5.646111,6.538954 l 0.371156,52.160782 c 0.181167,4.13047 2.186374,5.79204 5.491418,5.69423 l 66.585543,0.0145 c 4.73089,0.008 3.44684,-4.1976 3.89543,-7.18977 l -0.98971,-50.888773 c -0.86392,-5.256103 -3.54173,-5.817107 -6.26342,-6.264601 z"
       id="path3"
       sodipodi:nodetypes="ccccccccc" /><path
       style="display:inline;fill:#151515;fill-opacity:1;stroke:#ffffff;stroke-width:0.609692;stroke-linecap:round;stroke-linejoin:round;stroke-dasharray:none;stroke-opacity:1"
       d="m 57.766641,58.041848 c -1.968404,0.794413 -1.40496,1.712393 -1.766564,2.585226 -1.685874,16.275598 -0.02607,25.279312 0.416074,34.306186 -0.212352,1.84654 0.19793,3.356726 2.789547,3.688495 13.316596,1.575515 26.633194,0.921985 39.949796,0.04919 1.555986,-0.50856 3.019076,-1.12026 2.872326,-3.518666 0.71726,-11.335345 2.25471,-22.286699 -0.19526,-35.104864 -0.92415,-3.011852 -2.19762,-2.154855 -3.357719,-2.553471 z"
       id="path4"
       sodipodi:nodetypes="ccccccccc" /><path
       style="fill:#397dd0;fill-opacity:1;stroke:#ffffff;stroke-width:0.609693;stroke-linecap:round;stroke-linejoin:round;stroke-dasharray:none;stroke-opacity:1"
       d="m 60.356504,61.335874 c -0.990106,0.03419 -1.560583,0.412894 -1.401668,1.390505 l 0.176707,11.24711 c 0.226097,1.113136 0.606801,2.037312 1.862796,1.891709 l 36.218405,0.171129 c 1.93452,-0.09038 2.238429,-1.24575 2.420533,-2.480663 l -0.38768,-9.824995 c -0.02896,-2.303424 -1.170606,-2.192709 -2.080353,-2.585252 z"
       id="path5"
       sodipodi:nodetypes="ccccccccc" /></g><g
     inkscape:groupmode="layer"
     id="layer6"
     inkscape:label="arrow"
     transform="translate(-33.032165,-48.137452)"><path
       style="display:inline;fill:url(#linearGradient10);stroke:none;stroke-width:1.02379;stroke-linecap:round;stroke-linejoin:round"
       d="m 47.26645,161.5335 -0.720582,37.52195 H 151.18977 c 8.51309,-2.53669 16.68434,-6.08054 15.84403,-36.17288 V 94.823646 h 16.91648 l -35.41861,-46.686194 -33.62404,46.852205 18.54801,-0.06814 -0.51326,56.771453 c -0.24208,9.4453 -3.78201,7.84134 -6.27238,9.75393 z"
       id="path9"
       sodipodi:nodetypes="cccccccccccc" /></g><g
     inkscape:groupmode="layer"
     id="layer1"
     inkscape:label="txt"
     style="display:none"
     transform="translate(0.04055867)"><text
       xml:space="preserve"
       style="font-style:normal;font-variant:normal;font-weight:normal;font-stretch:normal;font-size:68.487px;font-family:'Luckiest Guy';-inkscape-font-specification:'Luckiest Guy';fill:#000000;stroke-width:0.492082;stroke-dasharray:none"
       x="106.55164"
       y="132.73164"
       id="text3"
       transform="scale(0.90763787,1.101761)"><tspan
         sodipodi:role="line"
         id="tspan3"
         style="font-size:68.487px;fill:#ff6019;fill-opacity:1;stroke:#ffffff;stroke-width:0.492082;stroke-dasharray:none;stroke-opacity:1"
         x="106.55164"
         y="132.73164">SS</tspan></text></g></svg>
